<svg xmlns="http://www.w3.org/2000/svg" xmlns:xlink="http://www.w3.org/1999/xlink" width="59.594" height="59.844" viewBox="0 0 59.594 59.844">
  <defs>
    <style>
      .cls-1 {
        fill: #d53a35;
        fill-rule: evenodd;
        filter: url(#filter);
      }
    </style>
    <filter id="filter" x="-0.125" y="-0.156" width="59.719" height="60" filterUnits="userSpaceOnUse">
      <feFlood result="flood" flood-color="#8ec723"/>
      <feComposite result="composite" operator="in" in2="SourceGraphic"/>
      <feBlend result="blend" in2="SourceGraphic"/>
    </filter>
  </defs>
  <path id="_" data-name="" class="cls-1" d="M29.73,19.833a9.98,9.98,0,0,0-9.955,10,9.98,9.98,0,0,0,9.955,10,9.98,9.98,0,0,0,9.955-10A9.98,9.98,0,0,0,29.73,19.833Zm0,25a14.353,14.353,0,0,1-10.557-4.395A14.485,14.485,0,0,1,14.8,29.833a14.485,14.485,0,0,1,4.374-10.605A14.354,14.354,0,0,1,29.73,14.833a14.353,14.353,0,0,1,10.557,4.395,14.485,14.485,0,0,1,4.375,10.605,14.485,14.485,0,0,1-4.375,10.606A14.353,14.353,0,0,1,29.73,44.833Zm0-35a19.137,19.137,0,0,0-14.076,5.859A19.314,19.314,0,0,0,9.821,29.833a19.313,19.313,0,0,0,5.833,14.141A19.137,19.137,0,0,0,29.73,49.833a19.138,19.138,0,0,0,14.076-5.859,19.313,19.313,0,0,0,5.833-14.141,19.314,19.314,0,0,0-5.833-14.141A19.138,19.138,0,0,0,29.73,9.833Zm17.6,37.676a25.124,25.124,0,0,1-7.933,5.332,24.43,24.43,0,0,1-19.326,0,24.6,24.6,0,0,1-13.24-13.3,24.749,24.749,0,0,1,0-19.414,24.6,24.6,0,0,1,13.24-13.3,24.431,24.431,0,0,1,19.326,0,24.6,24.6,0,0,1,13.24,13.3,24.749,24.749,0,0,1,0,19.414A25.254,25.254,0,0,1,47.325,47.509ZM44.72,3.857A29.117,29.117,0,0,0,29.73-.167,29.114,29.114,0,0,0,14.74,3.857,29.8,29.8,0,0,0,3.872,14.775,29.449,29.449,0,0,0-.134,29.833,29.446,29.446,0,0,0,3.872,44.892,29.789,29.789,0,0,0,14.74,55.81a29.113,29.113,0,0,0,14.99,4.023A29.116,29.116,0,0,0,44.72,55.81,29.8,29.8,0,0,0,55.588,44.892a29.452,29.452,0,0,0,4.005-15.059,29.455,29.455,0,0,0-4.005-15.059A29.807,29.807,0,0,0,44.72,3.857Z"/>
</svg>
